<svg xmlns="http://www.w3.org/2000/svg" width="55" height="55" viewBox="0 0 55 55">
  <g id="Group_11" data-name="Group 11" transform="translate(-779 -193)">
    <g id="Ellipse_1" data-name="Ellipse 1" transform="translate(779 193)" fill="#44cac5" stroke="rgba(0,0,0,0.1)" stroke-width="1">
      <circle cx="27.5" cy="27.5" r="27.5" stroke="none"/>
      <circle cx="27.5" cy="27.5" r="27" fill="none"/>
    </g>
    <g id="Group_3" data-name="Group 3" transform="translate(791.789 208.029)">
      <g id="Group_1" data-name="Group 1" transform="translate(0 24.508) rotate(-90)">
        <g id="Union_4" data-name="Union 4" transform="translate(0 0)" fill="#fff">
          <path d="M 7.716715335845947 14.09642314910889 C 7.543705463409424 14.09642314910889 7.382555484771729 14.03406238555908 7.262955188751221 13.920823097229 L 0.8049652576446533 7.81306266784668 L 0.7773452401161194 7.786942481994629 L 0.7460952401161194 7.765302658081055 C 0.6125652194023132 7.672812461853027 0.5247652530670166 7.528122901916504 0.5052052736282349 7.368322849273682 C 0.5019052624702454 7.342772483825684 0.5004552602767944 7.320472717285156 0.5004552602767944 7.298552513122559 C 0.5004552602767944 7.280622482299805 0.5014552474021912 7.262192726135254 0.5034252405166626 7.243772506713867 C 0.5203852653503418 7.074442863464355 0.6093752384185791 6.924752712249756 0.7479552626609802 6.829592704772949 L 0.7801452279090881 6.807492733001709 L 0.8085152506828308 6.780652523040771 L 7.2627854347229 0.6755427122116089 C 7.382555484771729 0.5621426701545715 7.543705463409424 0.4997826814651489 7.716715335845947 0.4997826814651489 C 7.889915466308594 0.4997826814651489 8.051424980163574 0.5622627139091492 8.171504974365234 0.6757226586341858 C 8.283744812011719 0.7820127010345459 8.345735549926758 0.9213026762008667 8.34565544128418 1.067562699317932 C 8.345575332641602 1.213412642478943 8.283724784851074 1.352142691612244 8.171504974365234 1.458182692527771 L 3.510045289993286 5.867462635040283 L 2.597425222396851 6.730702877044678 L 3.853635311126709 6.730702877044678 L 10.50660514831543 6.730702877044678 C 10.8194751739502 6.730702877044678 11.07400512695313 6.985232830047607 11.07400512695313 7.298102855682373 C 11.07400512695313 7.610972881317139 10.8194751739502 7.865502834320068 10.50660514831543 7.865502834320068 L 3.852955341339111 7.865502834320068 L 2.596615314483643 7.865502834320068 L 3.509395360946655 8.72877311706543 L 8.171345710754395 13.13787269592285 C 8.283804893493652 13.24414253234863 8.34565544128418 13.38308238983154 8.34565544128418 13.52925300598145 C 8.34565544128418 13.67542266845703 8.283804893493652 13.81436252593994 8.171504974365234 13.92048263549805 C 8.051435470581055 14.03394222259521 7.889915466308594 14.09642314910889 7.716715335845947 14.09642314910889 Z" stroke="none"/>
          <path d="M 7.716715335845947 13.59642314910889 C 7.737685203552246 13.59642314910889 7.790505409240723 13.59258270263672 7.828105449676514 13.55705261230469 C 7.834665298461914 13.55086231231689 7.84565544128418 13.53901290893555 7.84565544128418 13.52925300598145 C 7.84565544128418 13.51949310302734 7.834665298461914 13.50764274597168 7.827775478363037 13.50113296508789 L 3.165825128555298 9.092032432556152 L 1.340275287628174 7.365502834320068 L 3.852955341339111 7.365502834320068 L 10.50660514831543 7.365502834320068 C 10.5437650680542 7.365502834320068 10.57400512695313 7.335262775421143 10.57400512695313 7.298102855682373 C 10.57400512695313 7.260942459106445 10.5437650680542 7.230702877044678 10.50660514831543 7.230702877044678 L 3.853635311126709 7.230702877044678 L 1.341225266456604 7.230702877044678 L 3.166455268859863 5.504222869873047 L 7.828105449676514 1.094752669334412 C 7.834655284881592 1.088562726974487 7.845645427703857 1.076762676239014 7.84565544128418 1.067302703857422 C 7.845665454864502 1.057272672653198 7.834175109863281 1.04489266872406 7.828105449676514 1.03915274143219 C 7.790505409240723 1.003622651100159 7.737685203552246 0.9997826814651489 7.716715335845947 0.9997826814651489 C 7.695925235748291 0.9997826814651489 7.643595218658447 1.003552675247192 7.606375217437744 1.038782715797424 L 1.152105212211609 7.143892765045166 L 1.095375299453735 7.197562694549561 L 1.030985236167908 7.241772651672363 C 1.0229651927948 7.2472825050354 1.004015207290649 7.263012886047363 1.001305222511292 7.29006290435791 L 1.000995278358459 7.297152519226074 L 1.000625252723694 7.300642490386963 L 1.001075267791748 7.304102897644043 L 1.001495242118835 7.307562828063965 C 1.004685282707214 7.33361291885376 1.023045301437378 7.348902702331543 1.030785202980042 7.354272842407227 L 1.093285202980042 7.397562503814697 L 1.148525238037109 7.449802875518799 L 7.606715202331543 13.55774307250977 C 7.643595218658447 13.59265232086182 7.695925235748291 13.59642314910889 7.716715335845947 13.59642314910889 M 7.716715335845947 14.59642314910889 C 7.427925109863281 14.59642314910889 7.139255046844482 14.49225234985352 6.919195175170898 14.28390312194824 L 0.4613952338695526 8.176332473754883 C 0.217155247926712 8.007163047790527 0.04679524526000023 7.738592624664307 0.00890524685382843 7.429072856903076 C 0.003295246511697769 7.38575267791748 0.0004552464233711362 7.342132568359375 0.0004552464233711362 7.298552513122559 C 0.0004552464233711362 7.262472629547119 0.00242524640634656 7.226432800292969 0.006275246385484934 7.190502643585205 C 0.03838524594902992 6.869592666625977 0.2126052528619766 6.590672492980957 0.4649252593517303 6.417412757873535 L 6.919195175170898 0.3123026788234711 C 7.13924503326416 0.1039526909589767 7.42792272567749 -0.0002223123155999929 7.716712951660156 -0.0002223123155999929 C 8.005502700805664 -0.0002223123155999929 8.294404983520508 0.1039526909589767 8.514904975891113 0.3123026788234711 C 8.955904960632324 0.7299026846885681 8.955904960632324 1.404902696609497 8.514904975891113 1.821602702140808 L 3.853635311126709 6.230702877044678 L 10.50660514831543 6.230702877044678 C 11.09609508514404 6.230702877044678 11.57400512695313 6.708602905273438 11.57400512695313 7.298102855682373 C 11.57400512695313 7.887602806091309 11.09609508514404 8.36550235748291 10.50660514831543 8.36550235748291 L 3.852955341339111 8.36550235748291 L 8.514904975891113 12.77460289001465 C 8.955904960632324 13.19130229949951 8.955904960632324 13.86720275878906 8.514904975891113 14.28390312194824 C 8.294404983520508 14.49225234985352 8.005495071411133 14.59642314910889 7.716715335845947 14.59642314910889 Z" stroke="none" fill="#fff"/>
        </g>
        <g id="Rectangle_12" data-name="Rectangle 12" transform="translate(3.873 5.741)" fill="#fff" stroke="#fff" stroke-linejoin="round" stroke-width="1">
          <rect width="20.635" height="3.113" stroke="none"/>
          <rect x="0.5" y="0.5" width="19.635" height="2.113" fill="none"/>
        </g>
      </g>
      <g id="Group_2" data-name="Group 2" transform="translate(29.297) rotate(90)">
        <g id="Union_4-2" data-name="Union 4" transform="translate(0 0)" fill="#fff">
          <path d="M 7.716715335845947 14.09642314910889 C 7.543705463409424 14.09642314910889 7.382555484771729 14.03406238555908 7.262955188751221 13.920823097229 L 0.8049652576446533 7.81306266784668 L 0.7773452401161194 7.786942481994629 L 0.7460952401161194 7.765302658081055 C 0.6125652194023132 7.672812461853027 0.5247652530670166 7.528122901916504 0.5052052736282349 7.368322849273682 C 0.5019052624702454 7.342772483825684 0.5004552602767944 7.320472717285156 0.5004552602767944 7.298552513122559 C 0.5004552602767944 7.280622482299805 0.5014552474021912 7.262192726135254 0.5034252405166626 7.243772506713867 C 0.5203852653503418 7.074442863464355 0.6093752384185791 6.924752712249756 0.7479552626609802 6.829592704772949 L 0.7801452279090881 6.807492733001709 L 0.8085152506828308 6.780652523040771 L 7.2627854347229 0.6755427122116089 C 7.382555484771729 0.5621426701545715 7.543705463409424 0.4997826814651489 7.716715335845947 0.4997826814651489 C 7.889915466308594 0.4997826814651489 8.051424980163574 0.5622627139091492 8.171504974365234 0.6757226586341858 C 8.283744812011719 0.7820127010345459 8.345735549926758 0.9213026762008667 8.34565544128418 1.067562699317932 C 8.345575332641602 1.213412642478943 8.283724784851074 1.352142691612244 8.171504974365234 1.458182692527771 L 3.510045289993286 5.867462635040283 L 2.597425222396851 6.730702877044678 L 3.853635311126709 6.730702877044678 L 10.50660514831543 6.730702877044678 C 10.8194751739502 6.730702877044678 11.07400512695313 6.985232830047607 11.07400512695313 7.298102855682373 C 11.07400512695313 7.610972881317139 10.8194751739502 7.865502834320068 10.50660514831543 7.865502834320068 L 3.852955341339111 7.865502834320068 L 2.596615314483643 7.865502834320068 L 3.509395360946655 8.72877311706543 L 8.171345710754395 13.13787269592285 C 8.283804893493652 13.24414253234863 8.34565544128418 13.38308238983154 8.34565544128418 13.52925300598145 C 8.34565544128418 13.67542266845703 8.283804893493652 13.81436252593994 8.171504974365234 13.92048263549805 C 8.051435470581055 14.03394222259521 7.889915466308594 14.09642314910889 7.716715335845947 14.09642314910889 Z" stroke="none"/>
          <path d="M 7.716715335845947 13.59642314910889 C 7.737685203552246 13.59642314910889 7.790505409240723 13.59258270263672 7.828105449676514 13.55705261230469 C 7.834665298461914 13.55086231231689 7.84565544128418 13.53901290893555 7.84565544128418 13.52925300598145 C 7.84565544128418 13.51949310302734 7.834665298461914 13.50764274597168 7.827775478363037 13.50113296508789 L 3.165825128555298 9.092032432556152 L 1.340275287628174 7.365502834320068 L 3.852955341339111 7.365502834320068 L 10.50660514831543 7.365502834320068 C 10.5437650680542 7.365502834320068 10.57400512695313 7.335262775421143 10.57400512695313 7.298102855682373 C 10.57400512695313 7.260942459106445 10.5437650680542 7.230702877044678 10.50660514831543 7.230702877044678 L 3.853635311126709 7.230702877044678 L 1.341225266456604 7.230702877044678 L 3.166455268859863 5.504222869873047 L 7.828105449676514 1.094752669334412 C 7.834655284881592 1.088562726974487 7.845645427703857 1.076762676239014 7.84565544128418 1.067302703857422 C 7.845665454864502 1.057272672653198 7.834175109863281 1.04489266872406 7.828105449676514 1.03915274143219 C 7.790505409240723 1.003622651100159 7.737685203552246 0.9997826814651489 7.716715335845947 0.9997826814651489 C 7.695925235748291 0.9997826814651489 7.643595218658447 1.003552675247192 7.606375217437744 1.038782715797424 L 1.152105212211609 7.143892765045166 L 1.095375299453735 7.197562694549561 L 1.030985236167908 7.241772651672363 C 1.0229651927948 7.2472825050354 1.004015207290649 7.263012886047363 1.001305222511292 7.29006290435791 L 1.000995278358459 7.297152519226074 L 1.000625252723694 7.300642490386963 L 1.001075267791748 7.304102897644043 L 1.001495242118835 7.307562828063965 C 1.004685282707214 7.33361291885376 1.023045301437378 7.348902702331543 1.030785202980042 7.354272842407227 L 1.093285202980042 7.397562503814697 L 1.148525238037109 7.449802875518799 L 7.606715202331543 13.55774307250977 C 7.643595218658447 13.59265232086182 7.695925235748291 13.59642314910889 7.716715335845947 13.59642314910889 M 7.716715335845947 14.59642314910889 C 7.427925109863281 14.59642314910889 7.139255046844482 14.49225234985352 6.919195175170898 14.28390312194824 L 0.4613952338695526 8.176332473754883 C 0.217155247926712 8.007163047790527 0.04679524526000023 7.738592624664307 0.00890524685382843 7.429072856903076 C 0.003295246511697769 7.38575267791748 0.0004552464233711362 7.342132568359375 0.0004552464233711362 7.298552513122559 C 0.0004552464233711362 7.262472629547119 0.00242524640634656 7.226432800292969 0.006275246385484934 7.190502643585205 C 0.03838524594902992 6.869592666625977 0.2126052528619766 6.590672492980957 0.4649252593517303 6.417412757873535 L 6.919195175170898 0.3123026788234711 C 7.13924503326416 0.1039526909589767 7.42792272567749 -0.0002223123155999929 7.716712951660156 -0.0002223123155999929 C 8.005502700805664 -0.0002223123155999929 8.294404983520508 0.1039526909589767 8.514904975891113 0.3123026788234711 C 8.955904960632324 0.7299026846885681 8.955904960632324 1.404902696609497 8.514904975891113 1.821602702140808 L 3.853635311126709 6.230702877044678 L 10.50660514831543 6.230702877044678 C 11.09609508514404 6.230702877044678 11.57400512695313 6.708602905273438 11.57400512695313 7.298102855682373 C 11.57400512695313 7.887602806091309 11.09609508514404 8.36550235748291 10.50660514831543 8.36550235748291 L 3.852955341339111 8.36550235748291 L 8.514904975891113 12.77460289001465 C 8.955904960632324 13.19130229949951 8.955904960632324 13.86720275878906 8.514904975891113 14.28390312194824 C 8.294404983520508 14.49225234985352 8.005495071411133 14.59642314910889 7.716715335845947 14.59642314910889 Z" stroke="none" fill="#fff"/>
        </g>
        <g id="Rectangle_12-2" data-name="Rectangle 12" transform="translate(3.873 5.741)" fill="#fff" stroke="#fff" stroke-linejoin="round" stroke-width="1">
          <rect width="20.635" height="3.113" stroke="none"/>
          <rect x="0.5" y="0.5" width="19.635" height="2.113" fill="none"/>
        </g>
      </g>
    </g>
  </g>
</svg>
